<?xml version="1.0" encoding="utf-8" standalone="no"?>
<!DOCTYPE svg PUBLIC "-//W3C//DTD SVG 1.1//EN"
  "http://www.w3.org/Graphics/SVG/1.1/DTD/svg11.dtd">
<svg xmlns:xlink="http://www.w3.org/1999/xlink" width="460.8pt" height="345.6pt" viewBox="0 0 460.8 345.6" xmlns="http://www.w3.org/2000/svg" version="1.1">
 <metadata>
  <rdf:RDF xmlns:dc="http://purl.org/dc/elements/1.1/" xmlns:cc="http://creativecommons.org/ns#" xmlns:rdf="http://www.w3.org/1999/02/22-rdf-syntax-ns#">
   <cc:Work>
    <dc:type rdf:resource="http://purl.org/dc/dcmitype/StillImage"/>
    <dc:date>2026-07-15T23:30:29.312753</dc:date>
    <dc:format>image/svg+xml</dc:format>
    <dc:creator>
     <cc:Agent>
      <dc:title>Matplotlib v3.11.0, https://matplotlib.org/</dc:title>
     </cc:Agent>
    </dc:creator>
   </cc:Work>
  </rdf:RDF>
 </metadata>
 <defs>
  <style type="text/css">*{stroke-linejoin: round; stroke-linecap: butt}</style>
 </defs>
 <g id="figure_1">
  <g id="patch_1">
   <path d="M 0 345.6 
L 460.8 345.6 
L 460.8 0 
L 0 0 
L 0 345.6 
z
" style="fill: none"/>
  </g>
  <g id="axes_1">
   <g id="patch_2">
    <path d="M 10.8 334.8 
L 447 334.8 
L 447 23.55884 
L 10.8 23.55884 
L 10.8 334.8 
z
" style="fill: none"/>
   </g>
   <g id="patch_3">
    <path d="M 228.9 320.652675 
C 266.419146 320.652675 302.406655 305.74616 328.936698 279.216118 
C 355.46674 252.686075 370.373255 216.698566 370.373255 179.17942 
C 370.373255 141.660274 355.46674 105.672764 328.936698 79.142722 
C 302.406655 52.61268 266.419146 37.706165 228.9 37.706165 
C 191.380854 37.706165 155.393345 52.61268 128.863302 79.142722 
C 102.33326 105.672764 87.426745 141.660274 87.426745 179.17942 
C 87.426745 216.698566 102.33326 252.686075 128.863302 279.216118 
C 155.393345 305.74616 191.380854 320.652675 228.9 320.652675 
L 228.9 320.652675 
z
" clip-path="url(#p5988e00e33)" style="fill: none; stroke: #0072b2; stroke-width: 2.5; stroke-linejoin: miter"/>
   </g>
   <g id="matplotlib.axis_1">
    <g id="text_1">
     <!-- $x$ -->
     <g transform="translate(431.478463 202.551218) scale(0.28 -0.28)">
      <defs>
       <path id="CMMI12-79" d="M 3033 2624 
C 2828 2585 2752 2431 2752 2310 
C 2752 2156 2873 2105 2963 2105 
C 3155 2105 3289 2271 3289 2444 
C 3289 2694 2982 2816 2713 2816 
C 2323 2816 2105 2451 2048 2329 
C 1900 2790 1504 2816 1388 2816 
C 736 2816 390 1993 390 1849 
C 390 1823 416 1790 460 1790 
C 512 1790 524 1829 537 1855 
C 755 2572 1184 2687 1369 2687 
C 1657 2687 1715 2438 1715 2284 
C 1715 2143 1676 1993 1600 1678 
L 1382 778 
C 1286 390 1100 64 761 64 
C 729 64 569 64 435 126 
C 665 166 716 358 716 435 
C 716 563 620 640 499 640 
C 345 640 179 505 179 300 
C 179 57 480 -64 755 -64 
C 1062 -64 1280 153 1414 415 
C 1516 64 1836 -64 2073 -64 
C 2726 -64 3072 751 3072 896 
C 3072 929 3046 955 3008 955 
C 2950 955 2944 922 2924 870 
C 2752 300 2380 64 2092 64 
C 1868 64 1747 204 1747 467 
C 1747 607 1772 712 1875 1146 
L 2099 2039 
C 2195 2425 2412 2687 2707 2687 
C 2720 2687 2899 2687 3033 2624 
z
" transform="scale(0.015625)"/>
      </defs>
      <use xlink:href="#CMMI12-79" transform="scale(0.996264)"/>
     </g>
    </g>
   </g>
   <g id="matplotlib.axis_2">
    <g id="text_2">
     <!-- $y$ -->
     <g transform="translate(211.582038 18.132959) scale(0.28 -0.28)">
      <defs>
       <path id="CMMI12-7a" d="M 1683 -673 
C 1510 -921 1260 -1152 947 -1152 
C 870 -1152 563 -1139 467 -826 
C 486 -833 518 -833 531 -833 
C 723 -833 851 -666 851 -519 
C 851 -372 729 -320 633 -320 
C 531 -320 307 -397 307 -711 
C 307 -1050 582 -1280 947 -1280 
C 1587 -1280 2233 -673 2412 -7 
L 3040 2483 
C 3046 2515 3059 2553 3059 2591 
C 3059 2687 2982 2752 2886 2752 
C 2828 2752 2694 2726 2643 2534 
L 2169 657 
C 2137 542 2137 530 2086 459 
C 1958 281 1747 64 1440 64 
C 1081 64 1049 415 1049 587 
C 1049 951 1222 1443 1395 1902 
C 1465 2087 1504 2177 1504 2305 
C 1504 2573 1312 2816 998 2816 
C 409 2816 172 1890 172 1838 
C 172 1813 198 1781 243 1781 
C 300 1781 307 1807 332 1896 
C 486 2432 729 2687 979 2687 
C 1036 2687 1145 2687 1145 2477 
C 1145 2311 1075 2126 979 1883 
C 665 1047 665 836 665 683 
C 665 76 1100 -64 1420 -64 
C 1606 -64 1836 -7 2060 230 
L 2067 223 
C 1971 -141 1907 -359 1683 -673 
z
" transform="scale(0.015625)"/>
      </defs>
      <use xlink:href="#CMMI12-7a" transform="scale(0.996264)"/>
     </g>
    </g>
   </g>
   <g id="line2d_1">
    <defs>
     <path id="m1edf102257" d="M 3 0 
L -3 -3 
L -3 3 
z
" style="stroke: #000000; stroke-linejoin: miter"/>
    </defs>
    <g>
     <use xlink:href="#m1edf102257" x="447" y="179.17942" style="stroke: #000000; stroke-linejoin: miter"/>
    </g>
   </g>
   <g id="line2d_2">
    <defs>
     <path id="mde191b18e5" d="M 0 -3 
L -3 3 
L 3 3 
z
" style="stroke: #000000; stroke-linejoin: miter"/>
    </defs>
    <g>
     <use xlink:href="#mde191b18e5" x="228.9" y="23.55884" style="stroke: #000000; stroke-linejoin: miter"/>
    </g>
   </g>
   <g id="line2d_3">
    <path d="M 257.194651 179.17942 
L 257.082518 176.662889 
L 256.747009 174.166303 
L 256.190783 171.709453 
L 255.418249 169.311809 
L 254.435529 166.992377 
L 253.250413 164.76954 
L 251.872295 162.660917 
L 250.312096 160.68322 
L 248.582184 158.852125 
L 246.69627 157.182146 
L 244.669301 155.686519 
L 243.047325 154.675533 
L 243.047325 154.675533 
" clip-path="url(#p5988e00e33)" style="fill: none; stroke: #dc5e8b; stroke-width: 2.5; stroke-linecap: square"/>
   </g>
   <g id="line2d_4">
    <path d="M 228.9 179.17942 
L 299.636627 56.659987 
" clip-path="url(#p5988e00e33)" style="fill: none; stroke: #dc5e8b; stroke-width: 2.5; stroke-linecap: square"/>
   </g>
   <g id="line2d_5">
    <path d="M 299.636627 179.17942 
L 299.636627 56.659987 
" clip-path="url(#p5988e00e33)" style="fill: none; stroke-dasharray: 9.25,4; stroke-dashoffset: 0; stroke: #808080; stroke-width: 2.5"/>
   </g>
   <g id="line2d_6">
    <path d="M 285.489302 179.17942 
L 285.489302 165.032094 
" clip-path="url(#p5988e00e33)" style="fill: none; stroke: #808080; stroke-width: 2.5; stroke-linecap: square"/>
   </g>
   <g id="line2d_7">
    <path d="M 285.489302 165.032094 
L 299.636627 165.032094 
" clip-path="url(#p5988e00e33)" style="fill: none; stroke: #808080; stroke-width: 2.5; stroke-linecap: square"/>
   </g>
   <g id="line2d_8">
    <defs>
     <path id="mbb5f444b94" d="M 0 5 
C 1.326016 5 2.597899 4.473168 3.535534 3.535534 
C 4.473168 2.597899 5 1.326016 5 0 
C 5 -1.326016 4.473168 -2.597899 3.535534 -3.535534 
C 2.597899 -4.473168 1.326016 -5 0 -5 
C -1.326016 -5 -2.597899 -4.473168 -3.535534 -3.535534 
C -4.473168 -2.597899 -5 -1.326016 -5 0 
C -5 1.326016 -4.473168 2.597899 -3.535534 3.535534 
C -2.597899 4.473168 -1.326016 5 0 5 
z
" style="stroke: #000000; stroke-opacity: 0.8"/>
    </defs>
    <g clip-path="url(#p5988e00e33)">
     <use xlink:href="#mbb5f444b94" x="299.636627" y="56.659987" style="fill-opacity: 0.8; stroke: #000000; stroke-opacity: 0.8"/>
    </g>
   </g>
   <g id="patch_4">
    <path d="M 228.9 334.8 
L 228.9 23.55884 
" style="fill: none; stroke: #000000; stroke-width: 0.8; stroke-linejoin: miter; stroke-linecap: square"/>
   </g>
   <g id="patch_5">
    <path d="M 447 334.8 
L 447 23.55884 
" style="fill: none"/>
   </g>
   <g id="patch_6">
    <path d="M 10.8 179.17942 
L 447 179.17942 
" style="fill: none; stroke: #000000; stroke-width: 0.8; stroke-linejoin: miter; stroke-linecap: square"/>
   </g>
   <g id="patch_7">
    <path d="M 10.8 23.55884 
L 447 23.55884 
" style="fill: none"/>
   </g>
   <g id="text_3">
    <!-- $P$ -->
    <g transform="translate(300.203268 50.829792) scale(0.28 -0.28)">
     <defs>
      <path id="CMMI12-51" d="M 1894 2022 
L 2969 2022 
C 3853 2022 4736 2673 4736 3400 
C 4736 3898 4313 4352 3507 4352 
L 1529 4352 
C 1408 4352 1350 4352 1350 4230 
C 1350 4166 1408 4166 1504 4166 
C 1894 4166 1894 4115 1894 4045 
C 1894 4032 1894 3994 1868 3898 
L 1004 471 
C 947 249 934 185 486 185 
C 364 185 300 185 300 70 
C 300 0 358 0 396 0 
C 518 0 646 12 768 12 
L 1516 12 
C 1638 12 1772 0 1894 0 
C 1945 0 2016 0 2016 121 
C 2016 185 1958 185 1862 185 
C 1478 185 1472 230 1472 293 
C 1472 325 1478 369 1484 401 
L 1894 2022 
z
M 2355 3917 
C 2412 4153 2438 4166 2688 4166 
L 3321 4166 
C 3801 4166 4198 4013 4198 3534 
C 4198 3369 4115 2826 3821 2533 
C 3712 2418 3405 2176 2822 2176 
L 1920 2176 
L 2355 3917 
z
" transform="scale(0.015625)"/>
     </defs>
     <use xlink:href="#CMMI12-51" transform="scale(0.996264)"/>
    </g>
   </g>
   <g id="text_4">
    <!-- $1$ -->
    <g transform="translate(250.90834 112.089509) scale(0.28 -0.28)">
     <defs>
      <path id="CMR17-33" d="M 1702 4083 
C 1702 4217 1696 4224 1606 4224 
C 1356 3927 979 3833 620 3820 
C 601 3820 569 3820 563 3808 
C 556 3795 556 3782 556 3648 
C 755 3648 1088 3686 1344 3839 
L 1344 467 
C 1344 243 1331 166 780 166 
L 588 166 
L 588 0 
C 896 6 1216 12 1523 12 
C 1830 12 2150 6 2457 0 
L 2457 166 
L 2265 166 
C 1715 166 1702 236 1702 467 
L 1702 4083 
z
" transform="scale(0.015625)"/>
     </defs>
     <use xlink:href="#CMR17-33" transform="scale(0.996264)"/>
    </g>
   </g>
   <g id="text_5">
    <!-- $60^\circ$ -->
    <g transform="translate(260.096499 162.738731) scale(0.28 -0.28)">
     <defs>
      <path id="CMR17-38" d="M 678 2198 
C 678 3712 1395 4076 1811 4076 
C 1945 4076 2272 4049 2400 3782 
C 2297 3782 2105 3782 2105 3558 
C 2105 3385 2246 3328 2336 3328 
C 2393 3328 2566 3353 2566 3571 
C 2566 3987 2246 4224 1804 4224 
C 1043 4224 243 3411 243 2011 
C 243 257 966 -128 1478 -128 
C 2099 -128 2688 431 2688 1295 
C 2688 2101 2169 2688 1516 2688 
C 1126 2688 838 2430 678 1979 
L 678 2198 
z
M 1478 25 
C 691 25 691 1212 691 1450 
C 691 1914 908 2585 1504 2585 
C 1612 2585 1926 2585 2137 2140 
C 2252 1889 2252 1624 2252 1302 
C 2252 954 2252 696 2118 438 
C 1977 173 1772 25 1478 25 
z
" transform="scale(0.015625)"/>
      <path id="CMR17-32" d="M 2688 2038 
C 2688 2430 2681 3099 2412 3613 
C 2176 4063 1798 4224 1465 4224 
C 1158 4224 768 4082 524 3620 
C 268 3137 243 2539 243 2038 
C 243 1671 249 1112 448 623 
C 723 -39 1216 -128 1465 -128 
C 1760 -128 2208 -7 2470 604 
C 2662 1048 2688 1568 2688 2038 
z
M 1465 -26 
C 1056 -26 812 328 723 816 
C 652 1196 652 1749 652 2109 
C 652 2604 652 3015 736 3407 
C 857 3954 1216 4121 1465 4121 
C 1728 4121 2067 3947 2188 3420 
C 2272 3054 2278 2623 2278 2109 
C 2278 1691 2278 1176 2201 797 
C 2067 96 1689 -26 1465 -26 
z
" transform="scale(0.015625)"/>
      <path id="CMSY10-f" d="M 2841 1599 
C 2841 2266 2272 2816 1600 2816 
C 908 2816 352 2254 352 1599 
C 352 939 908 383 1600 383 
C 2272 383 2841 932 2841 1599 
z
M 1600 640 
C 1043 640 608 1076 608 1599 
C 608 2123 1049 2560 1600 2560 
C 2131 2560 2585 2136 2585 1599 
C 2585 1063 2131 640 1600 640 
z
" transform="scale(0.015625)"/>
     </defs>
     <use xlink:href="#CMR17-38" transform="scale(0.996264)"/>
     <use xlink:href="#CMR17-32" transform="translate(45.690477 0) scale(0.996264)"/>
     <use xlink:href="#CMSY10-f" transform="translate(91.380954 36.153639) scale(0.697382)"/>
    </g>
   </g>
  </g>
 </g>
 <defs>
  <clipPath id="p5988e00e33">
   <rect x="10.8" y="23.55884" width="436.2" height="311.24116"/>
  </clipPath>
 </defs>
</svg>
