<?xml version="1.0" encoding="utf-8" standalone="no"?>
<!DOCTYPE svg PUBLIC "-//W3C//DTD SVG 1.1//EN"
  "http://www.w3.org/Graphics/SVG/1.1/DTD/svg11.dtd">
<svg xmlns:xlink="http://www.w3.org/1999/xlink" width="432pt" height="432pt" viewBox="0 0 432 432" xmlns="http://www.w3.org/2000/svg" version="1.1">
 <metadata>
  <rdf:RDF xmlns:dc="http://purl.org/dc/elements/1.1/" xmlns:cc="http://creativecommons.org/ns#" xmlns:rdf="http://www.w3.org/1999/02/22-rdf-syntax-ns#">
   <cc:Work>
    <dc:type rdf:resource="http://purl.org/dc/dcmitype/StillImage"/>
    <dc:date>2026-07-25T02:49:47.516013</dc:date>
    <dc:format>image/svg+xml</dc:format>
    <dc:creator>
     <cc:Agent>
      <dc:title>Matplotlib v3.10.8, https://matplotlib.org/</dc:title>
     </cc:Agent>
    </dc:creator>
   </cc:Work>
  </rdf:RDF>
 </metadata>
 <defs>
  <style type="text/css">*{stroke-linejoin: round; stroke-linecap: butt}</style>
 </defs>
 <g id="figure_1">
  <g id="patch_1">
   <path d="M 0 432 
L 432 432 
L 432 0 
L 0 0 
L 0 432 
z
" style="fill: none"/>
  </g>
  <g id="axes_1">
   <g id="line2d_1">
    <path d="M 38.925832 345.700413 
L 384.793601 345.700413 
" clip-path="url(#p204b7bcc5f)" style="fill: none; stroke: #0072b2; stroke-width: 2.5; stroke-linecap: square"/>
   </g>
   <g id="line2d_2">
    <path d="M 384.793601 345.700413 
L 38.925832 86.299587 
" clip-path="url(#p204b7bcc5f)" style="fill: none; stroke: #0072b2; stroke-width: 2.5; stroke-linecap: square"/>
   </g>
   <g id="line2d_3">
    <path d="M 38.925832 86.299587 
L 38.925832 345.700413 
" clip-path="url(#p204b7bcc5f)" style="fill: none; stroke: #0072b2; stroke-width: 2.5; stroke-linecap: square"/>
   </g>
   <g id="line2d_4">
    <path d="M 67.562196 345.700413 
L 67.562196 317.06405 
L 38.925832 317.06405 
" clip-path="url(#p204b7bcc5f)" style="fill: none; stroke: #dc5e8b; stroke-width: 2; stroke-linecap: square"/>
   </g>
   <g id="line2d_5">
    <path d="M 343.88451 345.700413 
L 343.888186 345.151991 
L 343.899214 344.603668 
L 343.917592 344.055541 
L 343.943316 343.507711 
L 343.976382 342.960274 
L 344.016784 342.41333 
L 344.064514 341.866977 
L 344.119565 341.321312 
L 344.181926 340.776435 
L 344.251585 340.232442 
L 344.328532 339.689433 
L 344.41275 339.147503 
L 344.504227 338.606752 
L 344.602944 338.067275 
L 344.708884 337.52917 
L 344.822029 336.992534 
L 344.942358 336.457463 
L 345.069849 335.924053 
L 345.204479 335.3924 
L 345.346224 334.862599 
L 345.49506 334.334747 
L 345.650958 333.808937 
L 345.813891 333.285264 
L 345.98383 332.763823 
L 346.160743 332.244707 
L 346.344601 331.728009 
L 346.535368 331.213822 
L 346.733011 330.702239 
L 346.937495 330.193351 
L 347.148783 329.68725 
L 347.366836 329.184028 
L 347.591616 328.683774 
L 347.823082 328.186578 
L 348.061192 327.69253 
L 348.305904 327.201718 
L 348.557174 326.714231 
L 348.814957 326.230156 
L 349.079206 325.749581 
L 349.349874 325.272591 
L 349.626912 324.799273 
L 349.91027 324.329711 
L 350.199897 323.86399 
L 350.495742 323.402193 
L 350.797751 322.944404 
L 351.105871 322.490705 
L 351.420044 322.041178 
L 351.740216 321.595902 
L 352.066328 321.154959 
" clip-path="url(#p204b7bcc5f)" style="fill: none; stroke: #dc5e8b; stroke-width: 2; stroke-linecap: square"/>
   </g>
   <g id="line2d_6">
    <path d="M 38.925832 127.208678 
L 39.716092 127.201044 
L 40.506056 127.178146 
L 41.29543 127.139992 
L 42.083921 127.086597 
L 42.871232 127.01798 
L 43.657072 126.934167 
L 44.441145 126.835189 
L 45.223161 126.721083 
L 46.002826 126.591892 
L 46.77985 126.447664 
L 47.553942 126.288453 
L 48.324815 126.114318 
L 49.092181 125.925324 
L 49.855752 125.721542 
L 50.615244 125.503048 
L 51.370373 125.269923 
L 52.120859 125.022255 
L 52.86642 124.760135 
L 53.606778 124.483661 
L 54.341657 124.192938 
L 55.070784 123.888073 
L 55.793885 123.569179 
L 56.510691 123.236377 
L 57.220934 122.88979 
L 57.924349 122.529548 
L 58.620675 122.155784 
L 59.30965 121.768639 
L 59.991018 121.368258 
L 60.664524 120.954788 
L 61.329918 120.528385 
L 61.986951 120.089209 
L 62.635377 119.637421 
L 63.274954 119.173193 
L 63.905445 118.696696 
L 64.526613 118.208108 
L 65.138228 117.707612 
L 65.740059 117.195395 
L 66.331884 116.671647 
L 66.913481 116.136565 
L 67.484632 115.590347 
L 68.045126 115.033198 
L 68.594753 114.465326 
L 69.133307 113.886943 
L 69.660587 113.298264 
L 70.176398 112.699509 
L 70.680546 112.090901 
L 71.172843 111.472669 
L 71.653105 110.845041 
" clip-path="url(#p204b7bcc5f)" style="fill: none; stroke: #dc5e8b; stroke-width: 2; stroke-linecap: square"/>
   </g>
   <g id="text_1">
    <!-- $8$ -->
    <g transform="translate(205.006145 369.535072) scale(0.3 -0.3)">
     <defs>
      <path id="CMR17-38" d="M 1741 2264 
C 2144 2467 2554 2773 2554 3263 
C 2554 3841 1990 4179 1472 4179 
C 890 4179 378 3759 378 3180 
C 378 3021 416 2747 666 2505 
C 730 2442 998 2251 1171 2130 
C 883 1983 211 1634 211 934 
C 211 279 838 -128 1459 -128 
C 2144 -128 2720 362 2720 1010 
C 2720 1590 2330 1857 2074 2029 
L 1741 2264 
z
M 902 2822 
C 851 2854 595 3051 595 3351 
C 595 3739 998 4032 1459 4032 
C 1965 4032 2336 3676 2336 3262 
C 2336 2669 1670 2331 1638 2331 
C 1632 2331 1626 2331 1574 2370 
L 902 2822 
z
M 2080 1519 
C 2176 1449 2483 1240 2483 851 
C 2483 381 2010 25 1472 25 
C 890 25 448 438 448 940 
C 448 1443 838 1862 1280 2060 
L 2080 1519 
z
" transform="scale(0.015625)"/>
     </defs>
     <use xlink:href="#CMR17-38" transform="scale(0.996264)"/>
    </g>
   </g>
   <g id="text_2">
    <!-- $10$ -->
    <g transform="translate(207.970755 210.380113) scale(0.3 -0.3)">
     <defs>
      <path id="CMR17-31" d="M 1702 4058 
C 1702 4192 1696 4192 1606 4192 
C 1357 3916 979 3827 621 3827 
C 602 3827 570 3827 563 3808 
C 557 3795 557 3782 557 3648 
C 755 3648 1088 3686 1344 3839 
L 1344 461 
C 1344 236 1331 160 781 160 
L 589 160 
L 589 0 
C 896 0 1216 0 1523 0 
C 1830 0 2150 0 2458 0 
L 2458 160 
L 2266 160 
C 1715 160 1702 230 1702 458 
L 1702 4058 
z
" transform="scale(0.015625)"/>
      <path id="CMR17-30" d="M 2688 2025 
C 2688 2416 2682 3080 2413 3591 
C 2176 4039 1798 4198 1466 4198 
C 1158 4198 768 4058 525 3597 
C 269 3118 243 2524 243 2025 
C 243 1661 250 1106 448 619 
C 723 -39 1216 -128 1466 -128 
C 1760 -128 2208 -7 2470 600 
C 2662 1042 2688 1559 2688 2025 
z
M 1466 -26 
C 1056 -26 813 325 723 812 
C 653 1188 653 1738 653 2096 
C 653 2588 653 2997 736 3387 
C 858 3929 1216 4096 1466 4096 
C 1728 4096 2067 3923 2189 3400 
C 2272 3036 2278 2607 2278 2096 
C 2278 1680 2278 1169 2202 792 
C 2067 95 1690 -26 1466 -26 
z
" transform="scale(0.015625)"/>
     </defs>
     <use xlink:href="#CMR17-31" transform="scale(0.996264)"/>
     <use xlink:href="#CMR17-30" transform="translate(45.690477 0) scale(0.996264)"/>
    </g>
   </g>
   <g id="text_3">
    <!-- $6$ -->
    <g transform="translate(15.708624 223.471022) scale(0.3 -0.3)">
     <defs>
      <path id="CMR17-36" d="M 678 2176 
C 678 3690 1395 4032 1811 4032 
C 1946 4032 2272 4009 2400 3776 
C 2298 3776 2106 3776 2106 3553 
C 2106 3381 2246 3323 2336 3323 
C 2394 3323 2566 3348 2566 3560 
C 2566 3954 2246 4179 1805 4179 
C 1043 4179 243 3390 243 1984 
C 243 253 966 -128 1478 -128 
C 2099 -128 2688 427 2688 1283 
C 2688 2081 2170 2662 1517 2662 
C 1126 2662 838 2407 678 1960 
L 678 2176 
z
M 1478 25 
C 691 25 691 1200 691 1436 
C 691 1896 909 2560 1504 2560 
C 1613 2560 1926 2560 2138 2120 
C 2253 1870 2253 1609 2253 1289 
C 2253 944 2253 690 2118 434 
C 1978 171 1773 25 1478 25 
z
" transform="scale(0.015625)"/>
     </defs>
     <use xlink:href="#CMR17-36" transform="scale(0.996264)"/>
    </g>
   </g>
   <g id="text_4">
    <!-- $A$ -->
    <g transform="translate(18.699981 362.428106) scale(0.3 -0.3)">
     <defs>
      <path id="CMMI12-41" d="M 1088 691 
C 864 314 646 186 339 186 
C 269 180 218 180 218 58 
C 218 24 250 0 294 0 
C 410 0 698 0 813 0 
C 998 0 1203 0 1382 0 
C 1421 0 1498 0 1498 122 
C 1498 180 1446 186 1408 186 
C 1261 186 1139 236 1139 388 
C 1139 476 1178 546 1261 685 
L 1747 1479 
L 3379 1479 
C 3386 1423 3386 1373 3392 1316 
C 3411 1152 3488 495 3488 376 
C 3488 186 3162 186 3059 186 
C 2989 186 2918 186 2918 70 
C 2918 0 2976 0 3014 0 
C 3123 0 3251 0 3360 0 
L 3725 0 
C 4115 0 4397 0 4403 0 
C 4448 0 4518 0 4518 122 
C 4518 186 4461 186 4365 186 
C 4013 186 4006 244 3987 434 
L 3597 4404 
C 3584 4531 3558 4544 3488 4544 
C 3424 4544 3386 4531 3328 4435 
L 1088 691 
z
M 1856 1664 
L 3142 3819 
L 3360 1664 
L 1856 1664 
z
" transform="scale(0.015625)"/>
     </defs>
     <use xlink:href="#CMMI12-41" transform="scale(0.996264)"/>
    </g>
   </g>
   <g id="text_5">
    <!-- $B$ -->
    <g transform="translate(393.313768 359.71689) scale(0.3 -0.3)">
     <defs>
      <path id="CMMI12-42" d="M 2342 3921 
C 2400 4160 2426 4160 2675 4160 
L 3507 4160 
C 4230 4160 4230 3544 4230 3485 
C 4230 2966 3712 2304 2867 2304 
L 1946 2304 
L 2342 3921 
z
M 3424 2275 
C 4122 2402 4755 2886 4755 3473 
C 4755 3970 4314 4352 3590 4352 
L 1536 4352 
C 1414 4352 1357 4352 1357 4226 
C 1357 4160 1414 4160 1510 4160 
C 1901 4160 1901 4112 1901 4044 
C 1901 4032 1901 3993 1875 3897 
L 1011 472 
C 954 249 941 185 493 185 
C 371 185 307 185 307 70 
C 307 0 346 0 474 0 
L 2669 0 
C 3648 0 4403 739 4403 1383 
C 4403 1906 3942 2224 3424 2275 
z
M 2515 185 
L 1651 185 
C 1562 185 1549 185 1510 192 
C 1440 198 1434 211 1434 261 
C 1434 305 1446 343 1459 399 
L 1907 2176 
L 3110 2176 
C 3866 2176 3866 1483 3866 1433 
C 3866 828 3309 185 2515 185 
z
" transform="scale(0.015625)"/>
     </defs>
     <use xlink:href="#CMMI12-42" transform="scale(0.996264)"/>
    </g>
   </g>
   <g id="text_6">
    <!-- $C$ -->
    <g transform="translate(21.911571 80.6797) scale(0.3 -0.3)">
     <defs>
      <path id="CMMI12-43" d="M 4781 4423 
C 4781 4480 4736 4480 4723 4480 
C 4710 4480 4685 4480 4634 4416 
L 4192 3882 
C 3968 4264 3616 4480 3136 4480 
C 1754 4480 320 3088 320 1595 
C 320 533 1069 -128 2003 -128 
C 2515 -128 2963 88 3334 400 
C 3891 863 4058 1481 4058 1531 
C 4058 1588 4006 1588 3987 1588 
C 3930 1588 3923 1550 3910 1524 
C 3616 534 2752 57 2112 57 
C 1434 57 845 489 845 1391 
C 845 1595 909 2700 1632 3532 
C 1984 3939 2586 4295 3194 4295 
C 3898 4295 4211 3717 4211 3068 
C 4211 2903 4192 2764 4192 2738 
C 4192 2681 4256 2681 4275 2681 
C 4346 2681 4352 2687 4378 2801 
L 4781 4423 
z
" transform="scale(0.015625)"/>
     </defs>
     <use xlink:href="#CMMI12-43" transform="scale(0.996264)"/>
    </g>
   </g>
  </g>
 </g>
 <defs>
  <clipPath id="p204b7bcc5f">
   <rect x="22.502351" y="19.44" width="386.83135" height="393.12"/>
  </clipPath>
 </defs>
</svg>
